<mxfile host="65bd71144e">
    <diagram name="Page-1" id="7p-DjMxfiGbJGV4kvbYu">
        <mxGraphModel dx="-365" dy="773" grid="1" gridSize="10" guides="1" tooltips="1" connect="1" arrows="1" fold="1" page="1" pageScale="1" pageWidth="827" pageHeight="1169" math="1" shadow="0">
            <root>
                <mxCell id="0"/>
                <mxCell id="1" parent="0"/>
                <mxCell id="iezd7ulOfw2_HVggvkPe-1" value="" style="whiteSpace=wrap;html=1;aspect=fixed;container=0;" parent="1" vertex="1">
                    <mxGeometry x="1010" y="160" width="840" height="840" as="geometry"/>
                </mxCell>
                <mxCell id="iezd7ulOfw2_HVggvkPe-2" value="OuterLoop" style="text;html=1;align=center;verticalAlign=middle;whiteSpace=wrap;rounded=0;container=0;" parent="1" vertex="1">
                    <mxGeometry x="1009" y="160" width="60" height="30" as="geometry"/>
                </mxCell>
                <mxCell id="iezd7ulOfw2_HVggvkPe-3" value="MasterUpdater" style="rounded=0;whiteSpace=wrap;html=1;fillColor=#ffe6cc;strokeColor=#d79b00;container=0;" parent="1" vertex="1">
                    <mxGeometry x="1040" y="199" width="100" height="60" as="geometry"/>
                </mxCell>
                <mxCell id="iezd7ulOfw2_HVggvkPe-4" value="CutsManager" style="rounded=0;whiteSpace=wrap;html=1;fillColor=#f8cecc;strokeColor=#b85450;container=0;" parent="1" vertex="1">
                    <mxGeometry x="1300" y="290" width="100" height="60" as="geometry"/>
                </mxCell>
                <mxCell id="iezd7ulOfw2_HVggvkPe-5" value="" style="whiteSpace=wrap;html=1;aspect=fixed;fillColor=#dae8fc;strokeColor=#6c8ebf;container=0;" parent="1" vertex="1">
                    <mxGeometry x="1030" y="420" width="560" height="560" as="geometry"/>
                </mxCell>
                <mxCell id="iezd7ulOfw2_HVggvkPe-6" value="Master" style="rounded=0;whiteSpace=wrap;html=1;container=0;" parent="1" vertex="1">
                    <mxGeometry x="1060" y="465" width="120" height="60" as="geometry"/>
                </mxCell>
                <mxCell id="iezd7ulOfw2_HVggvkPe-7" style="edgeStyle=orthogonalEdgeStyle;rounded=0;orthogonalLoop=1;jettySize=auto;html=1;exitX=0.5;exitY=1;exitDx=0;exitDy=0;entryX=0;entryY=0.5;entryDx=0;entryDy=0;" parent="1" source="iezd7ulOfw2_HVggvkPe-8" target="iezd7ulOfw2_HVggvkPe-22" edge="1">
                    <mxGeometry relative="1" as="geometry"/>
                </mxCell>
                <mxCell id="iezd7ulOfw2_HVggvkPe-8" value="Subproblem" style="rounded=0;whiteSpace=wrap;html=1;container=0;" parent="1" vertex="1">
                    <mxGeometry x="1060" y="725" width="120" height="60" as="geometry"/>
                </mxCell>
                <mxCell id="iezd7ulOfw2_HVggvkPe-9" style="edgeStyle=orthogonalEdgeStyle;rounded=0;orthogonalLoop=1;jettySize=auto;html=1;entryX=1;entryY=0.5;entryDx=0;entryDy=0;" parent="1" source="iezd7ulOfw2_HVggvkPe-11" target="iezd7ulOfw2_HVggvkPe-6" edge="1">
                    <mxGeometry relative="1" as="geometry">
                        <Array as="points">
                            <mxPoint x="1350" y="495"/>
                        </Array>
                    </mxGeometry>
                </mxCell>
                <mxCell id="iezd7ulOfw2_HVggvkPe-10" style="edgeStyle=orthogonalEdgeStyle;rounded=0;orthogonalLoop=1;jettySize=auto;html=1;entryX=0;entryY=0.5;entryDx=0;entryDy=0;" parent="1" source="iezd7ulOfw2_HVggvkPe-11" target="iezd7ulOfw2_HVggvkPe-27" edge="1">
                    <mxGeometry relative="1" as="geometry"/>
                </mxCell>
                <mxCell id="iezd7ulOfw2_HVggvkPe-11" value="SubproblemCutSingleIter" style="ellipse;whiteSpace=wrap;html=1;container=0;" parent="1" vertex="1">
                    <mxGeometry x="1270" y="585" width="140" height="80" as="geometry"/>
                </mxCell>
                <mxCell id="iezd7ulOfw2_HVggvkPe-12" style="edgeStyle=orthogonalEdgeStyle;rounded=0;orthogonalLoop=1;jettySize=auto;html=1;entryX=0.5;entryY=1;entryDx=0;entryDy=0;" parent="1" source="iezd7ulOfw2_HVggvkPe-8" target="iezd7ulOfw2_HVggvkPe-11" edge="1">
                    <mxGeometry relative="1" as="geometry"/>
                </mxCell>
                <mxCell id="iezd7ulOfw2_HVggvkPe-13" value="" style="edgeStyle=orthogonalEdgeStyle;rounded=0;orthogonalLoop=1;jettySize=auto;html=1;" parent="1" source="iezd7ulOfw2_HVggvkPe-14" target="iezd7ulOfw2_HVggvkPe-8" edge="1">
                    <mxGeometry relative="1" as="geometry"/>
                </mxCell>
                <mxCell id="iezd7ulOfw2_HVggvkPe-14" value="$$x_{cut}$$" style="ellipse;whiteSpace=wrap;html=1;container=0;" parent="1" vertex="1">
                    <mxGeometry x="1060" y="585" width="120" height="80" as="geometry"/>
                </mxCell>
                <mxCell id="iezd7ulOfw2_HVggvkPe-15" value="" style="edgeStyle=orthogonalEdgeStyle;rounded=0;orthogonalLoop=1;jettySize=auto;html=1;" parent="1" source="iezd7ulOfw2_HVggvkPe-6" target="iezd7ulOfw2_HVggvkPe-14" edge="1">
                    <mxGeometry relative="1" as="geometry"/>
                </mxCell>
                <mxCell id="iezd7ulOfw2_HVggvkPe-16" value="Benders" style="text;html=1;align=center;verticalAlign=middle;whiteSpace=wrap;rounded=0;container=0;" parent="1" vertex="1">
                    <mxGeometry x="1030" y="420" width="60" height="30" as="geometry"/>
                </mxCell>
                <mxCell id="iezd7ulOfw2_HVggvkPe-17" style="edgeStyle=orthogonalEdgeStyle;rounded=0;orthogonalLoop=1;jettySize=auto;html=1;entryX=0.5;entryY=0;entryDx=0;entryDy=0;" parent="1" source="iezd7ulOfw2_HVggvkPe-4" target="iezd7ulOfw2_HVggvkPe-6" edge="1">
                    <mxGeometry relative="1" as="geometry"/>
                </mxCell>
                <mxCell id="iezd7ulOfw2_HVggvkPe-18" style="edgeStyle=orthogonalEdgeStyle;rounded=0;orthogonalLoop=1;jettySize=auto;html=1;entryX=0.25;entryY=0;entryDx=0;entryDy=0;" parent="1" source="iezd7ulOfw2_HVggvkPe-3" target="iezd7ulOfw2_HVggvkPe-6" edge="1">
                    <mxGeometry relative="1" as="geometry"/>
                </mxCell>
                <mxCell id="iezd7ulOfw2_HVggvkPe-19" style="edgeStyle=orthogonalEdgeStyle;rounded=0;orthogonalLoop=1;jettySize=auto;html=1;exitX=0.5;exitY=0;exitDx=0;exitDy=0;entryX=0.5;entryY=1;entryDx=0;entryDy=0;" parent="1" source="iezd7ulOfw2_HVggvkPe-20" target="iezd7ulOfw2_HVggvkPe-24" edge="1">
                    <mxGeometry relative="1" as="geometry"/>
                </mxCell>
                <mxCell id="iezd7ulOfw2_HVggvkPe-20" value="&lt;div&gt;Criterion(variable_name_list)&lt;/div&gt;" style="rounded=0;whiteSpace=wrap;html=1;fillColor=#d5e8d4;strokeColor=#82b366;container=0;" parent="1" vertex="1">
                    <mxGeometry x="1390" y="850" width="167" height="75" as="geometry"/>
                </mxCell>
                <mxCell id="iezd7ulOfw2_HVggvkPe-21" style="edgeStyle=orthogonalEdgeStyle;rounded=0;orthogonalLoop=1;jettySize=auto;html=1;" parent="1" source="iezd7ulOfw2_HVggvkPe-22" target="iezd7ulOfw2_HVggvkPe-20" edge="1">
                    <mxGeometry relative="1" as="geometry"/>
                </mxCell>
                <mxCell id="iezd7ulOfw2_HVggvkPe-22" value="SubproblemDataSingleIter (contains name-&amp;gt;solution for each subpb variable)" style="ellipse;whiteSpace=wrap;html=1;container=0;" parent="1" vertex="1">
                    <mxGeometry x="1180" y="847.5" width="160" height="80" as="geometry"/>
                </mxCell>
                <mxCell id="iezd7ulOfw2_HVggvkPe-23" style="edgeStyle=orthogonalEdgeStyle;rounded=0;orthogonalLoop=1;jettySize=auto;html=1;" parent="1" source="iezd7ulOfw2_HVggvkPe-24" target="iezd7ulOfw2_HVggvkPe-27" edge="1">
                    <mxGeometry relative="1" as="geometry"/>
                </mxCell>
                <mxCell id="iezd7ulOfw2_HVggvkPe-24" value="CriterionValueSingleIter" style="ellipse;whiteSpace=wrap;html=1;" parent="1" vertex="1">
                    <mxGeometry x="1406" y="695" width="134.5" height="80" as="geometry"/>
                </mxCell>
                <mxCell id="iezd7ulOfw2_HVggvkPe-25" style="edgeStyle=orthogonalEdgeStyle;rounded=0;orthogonalLoop=1;jettySize=auto;html=1;entryX=0.5;entryY=1;entryDx=0;entryDy=0;" parent="1" source="iezd7ulOfw2_HVggvkPe-27" target="iezd7ulOfw2_HVggvkPe-29" edge="1">
                    <mxGeometry relative="1" as="geometry"/>
                </mxCell>
                <mxCell id="iezd7ulOfw2_HVggvkPe-26" style="edgeStyle=orthogonalEdgeStyle;rounded=0;orthogonalLoop=1;jettySize=auto;html=1;entryX=1;entryY=0.5;entryDx=0;entryDy=0;" parent="1" source="iezd7ulOfw2_HVggvkPe-27" target="iezd7ulOfw2_HVggvkPe-4" edge="1">
                    <mxGeometry relative="1" as="geometry">
                        <Array as="points">
                            <mxPoint x="1720" y="320"/>
                        </Array>
                    </mxGeometry>
                </mxCell>
                <mxCell id="iezd7ulOfw2_HVggvkPe-27" value="&lt;div&gt;SubpbCutsAndCriterionValueAllIter&lt;/div&gt;(cuts + criterion values)" style="ellipse;whiteSpace=wrap;html=1;" parent="1" vertex="1">
                    <mxGeometry x="1621" y="594" width="210" height="62.5" as="geometry"/>
                </mxCell>
                <mxCell id="iezd7ulOfw2_HVggvkPe-28" style="edgeStyle=orthogonalEdgeStyle;rounded=0;orthogonalLoop=1;jettySize=auto;html=1;entryX=1;entryY=0.5;entryDx=0;entryDy=0;" parent="1" source="iezd7ulOfw2_HVggvkPe-29" target="iezd7ulOfw2_HVggvkPe-3" edge="1">
                    <mxGeometry relative="1" as="geometry"/>
                </mxCell>
                <mxCell id="iezd7ulOfw2_HVggvkPe-29" value="&lt;div&gt;get_best_it_criterion()&lt;/div&gt;" style="rounded=0;whiteSpace=wrap;html=1;container=0;" parent="1" vertex="1">
                    <mxGeometry x="1652.5" y="191" width="147" height="75" as="geometry"/>
                </mxCell>
            </root>
        </mxGraphModel>
    </diagram>
</mxfile>